<?xml version="1.0" encoding="UTF-8"?>
<svg width="640px" height="640px" viewBox="0 0 640 640" version="1.1" xmlns="http://www.w3.org/2000/svg" xmlns:xlink="http://www.w3.org/1999/xlink">
    <title>Tokens Podcast</title>
    <g id="tokens-systems-logo" stroke="none" stroke-width="1" fill="none" fill-rule="evenodd">
        <path d="M20,608 C26.627417,608 32,613.372583 32,620 C32,626.627417 26.627417,632 20,632 C13.372583,632 8,626.627417 8,620 C8,613.372583 13.372583,608 20,608 Z M60,608 C66.627417,608 72,613.372583 72,620 C72,626.627417 66.627417,632 60,632 C53.372583,632 48,626.627417 48,620 C48,613.372583 53.372583,608 60,608 Z M100,608 C106.627417,608 112,613.372583 112,620 C112,626.627417 106.627417,632 100,632 C93.372583,632 88,626.627417 88,620 C88,613.372583 93.372583,608 100,608 Z M140,608 C146.627417,608 152,613.372583 152,620 C152,626.627417 146.627417,632 140,632 C133.372583,632 128,626.627417 128,620 C128,613.372583 133.372583,608 140,608 Z M180,608 C186.627417,608 192,613.372583 192,620 C192,626.627417 186.627417,632 180,632 C173.372583,632 168,626.627417 168,620 C168,613.372583 173.372583,608 180,608 Z M220,608 C226.627417,608 232,613.372583 232,620 C232,626.627417 226.627417,632 220,632 C213.372583,632 208,626.627417 208,620 C208,613.372583 213.372583,608 220,608 Z M260,608 C266.627417,608 272,613.372583 272,620 C272,626.627417 266.627417,632 260,632 C253.372583,632 248,626.627417 248,620 C248,613.372583 253.372583,608 260,608 Z M300,608 C306.627417,608 312,613.372583 312,620 C312,626.627417 306.627417,632 300,632 C293.372583,632 288,626.627417 288,620 C288,613.372583 293.372583,608 300,608 Z M340,608 C346.627417,608 352,613.372583 352,620 C352,626.627417 346.627417,632 340,632 C333.372583,632 328,626.627417 328,620 C328,613.372583 333.372583,608 340,608 Z M380,608 C386.627417,608 392,613.372583 392,620 C392,626.627417 386.627417,632 380,632 C373.372583,632 368,626.627417 368,620 C368,613.372583 373.372583,608 380,608 Z M420,608 C426.627417,608 432,613.372583 432,620 C432,626.627417 426.627417,632 420,632 C413.372583,632 408,626.627417 408,620 C408,613.372583 413.372583,608 420,608 Z M460,608 C466.627417,608 472,613.372583 472,620 C472,626.627417 466.627417,632 460,632 C453.372583,632 448,626.627417 448,620 C448,613.372583 453.372583,608 460,608 Z M500,608 C506.627417,608 512,613.372583 512,620 C512,626.627417 506.627417,632 500,632 C493.372583,632 488,626.627417 488,620 C488,613.372583 493.372583,608 500,608 Z M540,608 C546.627417,608 552,613.372583 552,620 C552,626.627417 546.627417,632 540,632 C533.372583,632 528,626.627417 528,620 C528,613.372583 533.372583,608 540,608 Z M580,608 C586.627417,608 592,613.372583 592,620 C592,626.627417 586.627417,632 580,632 C573.372583,632 568,626.627417 568,620 C568,613.372583 573.372583,608 580,608 Z M620,608 C626.627417,608 632,613.372583 632,620 C632,626.627417 626.627417,632 620,632 C613.372583,632 608,626.627417 608,620 C608,613.372583 613.372583,608 620,608 Z M20,568 C26.627417,568 32,573.372583 32,580 C32,586.627417 26.627417,592 20,592 C13.372583,592 8,586.627417 8,580 C8,573.372583 13.372583,568 20,568 Z M60,568 C66.627417,568 72,573.372583 72,580 C72,586.627417 66.627417,592 60,592 C53.372583,592 48,586.627417 48,580 C48,573.372583 53.372583,568 60,568 Z M100,568 C106.627417,568 112,573.372583 112,580 C112,586.627417 106.627417,592 100,592 C93.372583,592 88,586.627417 88,580 C88,573.372583 93.372583,568 100,568 Z M140,568 C146.627417,568 152,573.372583 152,580 C152,586.627417 146.627417,592 140,592 C133.372583,592 128,586.627417 128,580 C128,573.372583 133.372583,568 140,568 Z M180,568 C186.627417,568 192,573.372583 192,580 C192,586.627417 186.627417,592 180,592 C173.372583,592 168,586.627417 168,580 C168,573.372583 173.372583,568 180,568 Z M220,568 C226.627417,568 232,573.372583 232,580 C232,586.627417 226.627417,592 220,592 C213.372583,592 208,586.627417 208,580 C208,573.372583 213.372583,568 220,568 Z M260,568 C266.627417,568 272,573.372583 272,580 C272,586.627417 266.627417,592 260,592 C253.372583,592 248,586.627417 248,580 C248,573.372583 253.372583,568 260,568 Z M300,568 C306.627417,568 312,573.372583 312,580 C312,586.627417 306.627417,592 300,592 C293.372583,592 288,586.627417 288,580 C288,573.372583 293.372583,568 300,568 Z M340,568 C346.627417,568 352,573.372583 352,580 C352,586.627417 346.627417,592 340,592 C333.372583,592 328,586.627417 328,580 C328,573.372583 333.372583,568 340,568 Z M380,568 C386.627417,568 392,573.372583 392,580 C392,586.627417 386.627417,592 380,592 C373.372583,592 368,586.627417 368,580 C368,573.372583 373.372583,568 380,568 Z M420,568 C426.627417,568 432,573.372583 432,580 C432,586.627417 426.627417,592 420,592 C413.372583,592 408,586.627417 408,580 C408,573.372583 413.372583,568 420,568 Z M460,568 C466.627417,568 472,573.372583 472,580 C472,586.627417 466.627417,592 460,592 C453.372583,592 448,586.627417 448,580 C448,573.372583 453.372583,568 460,568 Z M500,568 C506.627417,568 512,573.372583 512,580 C512,586.627417 506.627417,592 500,592 C493.372583,592 488,586.627417 488,580 C488,573.372583 493.372583,568 500,568 Z M540,568 C546.627417,568 552,573.372583 552,580 C552,586.627417 546.627417,592 540,592 C533.372583,592 528,586.627417 528,580 C528,573.372583 533.372583,568 540,568 Z M580,568 C586.627417,568 592,573.372583 592,580 C592,586.627417 586.627417,592 580,592 C573.372583,592 568,586.627417 568,580 C568,573.372583 573.372583,568 580,568 Z M620,568 C626.627417,568 632,573.372583 632,580 C632,586.627417 626.627417,592 620,592 C613.372583,592 608,586.627417 608,580 C608,573.372583 613.372583,568 620,568 Z M580,528 C586.627417,528 592,533.372583 592,540 C592,546.627417 586.627417,552 580,552 C573.372583,552 568,546.627417 568,540 C568,533.372583 573.372583,528 580,528 Z M620,528 C626.627417,528 632,533.372583 632,540 C632,546.627417 626.627417,552 620,552 C613.372583,552 608,546.627417 608,540 C608,533.372583 613.372583,528 620,528 Z M20,528 C26.627417,528 32,533.372583 32,540 C32,546.627417 26.627417,552 20,552 C13.372583,552 8,546.627417 8,540 C8,533.372583 13.372583,528 20,528 Z M60,528 C66.627417,528 72,533.372583 72,540 C72,546.627417 66.627417,552 60,552 C53.372583,552 48,546.627417 48,540 C48,533.372583 53.372583,528 60,528 Z M100,528 C106.627417,528 112,533.372583 112,540 C112,546.627417 106.627417,552 100,552 C93.372583,552 88,546.627417 88,540 C88,533.372583 93.372583,528 100,528 Z M140,528 C146.627417,528 152,533.372583 152,540 C152,546.627417 146.627417,552 140,552 C133.372583,552 128,546.627417 128,540 C128,533.372583 133.372583,528 140,528 Z M180,528 C186.627417,528 192,533.372583 192,540 C192,546.627417 186.627417,552 180,552 C173.372583,552 168,546.627417 168,540 C168,533.372583 173.372583,528 180,528 Z M220,528 C226.627417,528 232,533.372583 232,540 C232,546.627417 226.627417,552 220,552 C213.372583,552 208,546.627417 208,540 C208,533.372583 213.372583,528 220,528 Z M260,528 C266.627417,528 272,533.372583 272,540 C272,546.627417 266.627417,552 260,552 C253.372583,552 248,546.627417 248,540 C248,533.372583 253.372583,528 260,528 Z M300,528 C306.627417,528 312,533.372583 312,540 C312,546.627417 306.627417,552 300,552 C293.372583,552 288,546.627417 288,540 C288,533.372583 293.372583,528 300,528 Z M340,528 C346.627417,528 352,533.372583 352,540 C352,546.627417 346.627417,552 340,552 C333.372583,552 328,546.627417 328,540 C328,533.372583 333.372583,528 340,528 Z M380,528 C386.627417,528 392,533.372583 392,540 C392,546.627417 386.627417,552 380,552 C373.372583,552 368,546.627417 368,540 C368,533.372583 373.372583,528 380,528 Z M420,528 C426.627417,528 432,533.372583 432,540 C432,546.627417 426.627417,552 420,552 C413.372583,552 408,546.627417 408,540 C408,533.372583 413.372583,528 420,528 Z M460,528 C466.627417,528 472,533.372583 472,540 C472,546.627417 466.627417,552 460,552 C453.372583,552 448,546.627417 448,540 C448,533.372583 453.372583,528 460,528 Z M500,528 C506.627417,528 512,533.372583 512,540 C512,546.627417 506.627417,552 500,552 C493.372583,552 488,546.627417 488,540 C488,533.372583 493.372583,528 500,528 Z M540,528 C546.627417,528 552,533.372583 552,540 C552,546.627417 546.627417,552 540,552 C533.372583,552 528,546.627417 528,540 C528,533.372583 533.372583,528 540,528 Z M500,488 C506.627417,488 512,493.372583 512,500 C512,506.627417 506.627417,512 500,512 C493.372583,512 488,506.627417 488,500 C488,493.372583 493.372583,488 500,488 Z M620,488 C626.627417,488 632,493.372583 632,500 C632,506.627417 626.627417,512 620,512 C613.372583,512 608,506.627417 608,500 C608,493.372583 613.372583,488 620,488 Z M20,488 C26.627417,488 32,493.372583 32,500 C32,506.627417 26.627417,512 20,512 C13.372583,512 8,506.627417 8,500 C8,493.372583 13.372583,488 20,488 Z M60,488 C66.627417,488 72,493.372583 72,500 C72,506.627417 66.627417,512 60,512 C53.372583,512 48,506.627417 48,500 C48,493.372583 53.372583,488 60,488 Z M100,488 C106.627417,488 112,493.372583 112,500 C112,506.627417 106.627417,512 100,512 C93.372583,512 88,506.627417 88,500 C88,493.372583 93.372583,488 100,488 Z M140,488 C146.627417,488 152,493.372583 152,500 C152,506.627417 146.627417,512 140,512 C133.372583,512 128,506.627417 128,500 C128,493.372583 133.372583,488 140,488 Z M260,488 C266.627417,488 272,493.372583 272,500 C272,506.627417 266.627417,512 260,512 C253.372583,512 248,506.627417 248,500 C248,493.372583 253.372583,488 260,488 Z M300,488 C306.627417,488 312,493.372583 312,500 C312,506.627417 306.627417,512 300,512 C293.372583,512 288,506.627417 288,500 C288,493.372583 293.372583,488 300,488 Z M340,488 C346.627417,488 352,493.372583 352,500 C352,506.627417 346.627417,512 340,512 C333.372583,512 328,506.627417 328,500 C328,493.372583 333.372583,488 340,488 Z M380,488 C386.627417,488 392,493.372583 392,500 C392,506.627417 386.627417,512 380,512 C373.372583,512 368,506.627417 368,500 C368,493.372583 373.372583,488 380,488 Z M420,488 C426.627417,488 432,493.372583 432,500 C432,506.627417 426.627417,512 420,512 C413.372583,512 408,506.627417 408,500 C408,493.372583 413.372583,488 420,488 Z M460,488 C466.627417,488 472,493.372583 472,500 C472,506.627417 466.627417,512 460,512 C453.372583,512 448,506.627417 448,500 C448,493.372583 453.372583,488 460,488 Z M540,488 C546.627417,488 552,493.372583 552,500 C552,506.627417 546.627417,512 540,512 C533.372583,512 528,506.627417 528,500 C528,493.372583 533.372583,488 540,488 Z M580,488 C586.627417,488 592,493.372583 592,500 C592,506.627417 586.627417,512 580,512 C573.372583,512 568,506.627417 568,500 C568,493.372583 573.372583,488 580,488 Z M180,488 C186.627417,488 192,493.372583 192,500 C192,506.627417 186.627417,512 180,512 C173.372583,512 168,506.627417 168,500 C168,493.372583 173.372583,488 180,488 Z M220,488 C226.627417,488 232,493.372583 232,500 C232,506.627417 226.627417,512 220,512 C213.372583,512 208,506.627417 208,500 C208,493.372583 213.372583,488 220,488 Z M100,448 C106.627417,448 112,453.372583 112,460 C112,466.627417 106.627417,472 100,472 C93.372583,472 88,466.627417 88,460 C88,453.372583 93.372583,448 100,448 Z M140,448 C146.627417,448 152,453.372583 152,460 C152,466.627417 146.627417,472 140,472 C133.372583,472 128,466.627417 128,460 C128,453.372583 133.372583,448 140,448 Z M460,448 C466.627417,448 472,453.372583 472,460 C472,466.627417 466.627417,472 460,472 C453.372583,472 448,466.627417 448,460 C448,453.372583 453.372583,448 460,448 Z M60,448 C66.627417,448 72,453.372583 72,460 C72,466.627417 66.627417,472 60,472 C53.372583,472 48,466.627417 48,460 C48,453.372583 53.372583,448 60,448 Z M180,448 C186.627417,448 192,453.372583 192,460 C192,466.627417 186.627417,472 180,472 C173.372583,472 168,466.627417 168,460 C168,453.372583 173.372583,448 180,448 Z M220,448 C226.627417,448 232,453.372583 232,460 C232,466.627417 226.627417,472 220,472 C213.372583,472 208,466.627417 208,460 C208,453.372583 213.372583,448 220,448 Z M260,448 C266.627417,448 272,453.372583 272,460 C272,466.627417 266.627417,472 260,472 C253.372583,472 248,466.627417 248,460 C248,453.372583 253.372583,448 260,448 Z M340,448 C346.627417,448 352,453.372583 352,460 C352,466.627417 346.627417,472 340,472 C333.372583,472 328,466.627417 328,460 C328,453.372583 333.372583,448 340,448 Z M580,448 C586.627417,448 592,453.372583 592,460 C592,466.627417 586.627417,472 580,472 C573.372583,472 568,466.627417 568,460 C568,453.372583 573.372583,448 580,448 Z M380,448 C386.627417,448 392,453.372583 392,460 C392,466.627417 386.627417,472 380,472 C373.372583,472 368,466.627417 368,460 C368,453.372583 373.372583,448 380,448 Z M420,448 C426.627417,448 432,453.372583 432,460 C432,466.627417 426.627417,472 420,472 C413.372583,472 408,466.627417 408,460 C408,453.372583 413.372583,448 420,448 Z M620,448 C626.627417,448 632,453.372583 632,460 C632,466.627417 626.627417,472 620,472 C613.372583,472 608,466.627417 608,460 C608,453.372583 613.372583,448 620,448 Z M500,448 C506.627417,448 512,453.372583 512,460 C512,466.627417 506.627417,472 500,472 C493.372583,472 488,466.627417 488,460 C488,453.372583 493.372583,448 500,448 Z M20,448 C26.627417,448 32,453.372583 32,460 C32,466.627417 26.627417,472 20,472 C13.372583,472 8,466.627417 8,460 C8,453.372583 13.372583,448 20,448 Z M540,448 C546.627417,448 552,453.372583 552,460 C552,466.627417 546.627417,472 540,472 C533.372583,472 528,466.627417 528,460 C528,453.372583 533.372583,448 540,448 Z M20,408 C26.627417,408 32,413.372583 32,420 C32,426.627417 26.627417,432 20,432 C13.372583,432 8,426.627417 8,420 C8,413.372583 13.372583,408 20,408 Z M60,408 C66.627417,408 72,413.372583 72,420 C72,426.627417 66.627417,432 60,432 C53.372583,432 48,426.627417 48,420 C48,413.372583 53.372583,408 60,408 Z M580,408 C586.627417,408 592,413.372583 592,420 C592,426.627417 586.627417,432 580,432 C573.372583,432 568,426.627417 568,420 C568,413.372583 573.372583,408 580,408 Z M620,408 C626.627417,408 632,413.372583 632,420 C632,426.627417 626.627417,432 620,432 C613.372583,432 608,426.627417 608,420 C608,413.372583 613.372583,408 620,408 Z M260,408 C266.627417,408 272,413.372583 272,420 C272,426.627417 266.627417,432 260,432 C253.372583,432 248,426.627417 248,420 C248,413.372583 253.372583,408 260,408 Z M340,408 C346.627417,408 352,413.372583 352,420 C352,426.627417 346.627417,432 340,432 C333.372583,432 328,426.627417 328,420 C328,413.372583 333.372583,408 340,408 Z M460,408 C466.627417,408 472,413.372583 472,420 C472,426.627417 466.627417,432 460,432 C453.372583,432 448,426.627417 448,420 C448,413.372583 453.372583,408 460,408 Z M540,408 C546.627417,408 552,413.372583 552,420 C552,426.627417 546.627417,432 540,432 C533.372583,432 528,426.627417 528,420 C528,413.372583 533.372583,408 540,408 Z M420,408 C426.627417,408 432,413.372583 432,420 C432,426.627417 426.627417,432 420,432 C413.372583,432 408,426.627417 408,420 C408,413.372583 413.372583,408 420,408 Z M100,408 C106.627417,408 112,413.372583 112,420 C112,426.627417 106.627417,432 100,432 C93.372583,432 88,426.627417 88,420 C88,413.372583 93.372583,408 100,408 Z M140,408 C146.627417,408 152,413.372583 152,420 C152,426.627417 146.627417,432 140,432 C133.372583,432 128,426.627417 128,420 C128,413.372583 133.372583,408 140,408 Z M220,408 C226.627417,408 232,413.372583 232,420 C232,426.627417 226.627417,432 220,432 C213.372583,432 208,426.627417 208,420 C208,413.372583 213.372583,408 220,408 Z M100,368 C106.627417,368 112,373.372583 112,380 C112,386.627417 106.627417,392 100,392 C93.372583,392 88,386.627417 88,380 C88,373.372583 93.372583,368 100,368 Z M260,368 C266.627417,368 272,373.372583 272,380 C272,386.627417 266.627417,392 260,392 C253.372583,392 248,386.627417 248,380 C248,373.372583 253.372583,368 260,368 Z M420,368 C426.627417,368 432,373.372583 432,380 C432,386.627417 426.627417,392 420,392 C413.372583,392 408,386.627417 408,380 C408,373.372583 413.372583,368 420,368 Z M540,368 C546.627417,368 552,373.372583 552,380 C552,386.627417 546.627417,392 540,392 C533.372583,392 528,386.627417 528,380 C528,373.372583 533.372583,368 540,368 Z M580,368 C586.627417,368 592,373.372583 592,380 C592,386.627417 586.627417,392 580,392 C573.372583,392 568,386.627417 568,380 C568,373.372583 573.372583,368 580,368 Z M60,368 C66.627417,368 72,373.372583 72,380 C72,386.627417 66.627417,392 60,392 C53.372583,392 48,386.627417 48,380 C48,373.372583 53.372583,368 60,368 Z M20,368 C26.627417,368 32,373.372583 32,380 C32,386.627417 26.627417,392 20,392 C13.372583,392 8,386.627417 8,380 C8,373.372583 13.372583,368 20,368 Z M620,368 C626.627417,368 632,373.372583 632,380 C632,386.627417 626.627417,392 620,392 C613.372583,392 608,386.627417 608,380 C608,373.372583 613.372583,368 620,368 Z M20,328 C26.627417,328 32,333.372583 32,340 C32,346.627417 26.627417,352 20,352 C13.372583,352 8,346.627417 8,340 C8,333.372583 13.372583,328 20,328 Z M60,328 C66.627417,328 72,333.372583 72,340 C72,346.627417 66.627417,352 60,352 C53.372583,352 48,346.627417 48,340 C48,333.372583 53.372583,328 60,328 Z M580,328 C586.627417,328 592,333.372583 592,340 C592,346.627417 586.627417,352 580,352 C573.372583,352 568,346.627417 568,340 C568,333.372583 573.372583,328 580,328 Z M620,328 C626.627417,328 632,333.372583 632,340 C632,346.627417 626.627417,352 620,352 C613.372583,352 608,346.627417 608,340 C608,333.372583 613.372583,328 620,328 Z M620,288 C626.627417,288 632,293.372583 632,300 C632,306.627417 626.627417,312 620,312 C613.372583,312 608,306.627417 608,300 C608,293.372583 613.372583,288 620,288 Z M60,288 C66.627417,288 72,293.372583 72,300 C72,306.627417 66.627417,312 60,312 C53.372583,312 48,306.627417 48,300 C48,293.372583 53.372583,288 60,288 Z M20,288 C26.627417,288 32,293.372583 32,300 C32,306.627417 26.627417,312 20,312 C13.372583,312 8,306.627417 8,300 C8,293.372583 13.372583,288 20,288 Z M580,288 C586.627417,288 592,293.372583 592,300 C592,306.627417 586.627417,312 580,312 C573.372583,312 568,306.627417 568,300 C568,293.372583 573.372583,288 580,288 Z M620,248 C626.627417,248 632,253.372583 632,260 C632,266.627417 626.627417,272 620,272 C613.372583,272 608,266.627417 608,260 C608,253.372583 613.372583,248 620,248 Z M540,248 C546.627417,248 552,253.372583 552,260 C552,266.627417 546.627417,272 540,272 C533.372583,272 528,266.627417 528,260 C528,253.372583 533.372583,248 540,248 Z M100,248 C106.627417,248 112,253.372583 112,260 C112,266.627417 106.627417,272 100,272 C93.372583,272 88,266.627417 88,260 C88,253.372583 93.372583,248 100,248 Z M260,248 C266.627417,248 272,253.372583 272,260 C272,266.627417 266.627417,272 260,272 C253.372583,272 248,266.627417 248,260 C248,253.372583 253.372583,248 260,248 Z M60,248 C66.627417,248 72,253.372583 72,260 C72,266.627417 66.627417,272 60,272 C53.372583,272 48,266.627417 48,260 C48,253.372583 53.372583,248 60,248 Z M420,248 C426.627417,248 432,253.372583 432,260 C432,266.627417 426.627417,272 420,272 C413.372583,272 408,266.627417 408,260 C408,253.372583 413.372583,248 420,248 Z M20,248 C26.627417,248 32,253.372583 32,260 C32,266.627417 26.627417,272 20,272 C13.372583,272 8,266.627417 8,260 C8,253.372583 13.372583,248 20,248 Z M580,248 C586.627417,248 592,253.372583 592,260 C592,266.627417 586.627417,272 580,272 C573.372583,272 568,266.627417 568,260 C568,253.372583 573.372583,248 580,248 Z M100,208 C106.627417,208 112,213.372583 112,220 C112,226.627417 106.627417,232 100,232 C93.372583,232 88,226.627417 88,220 C88,213.372583 93.372583,208 100,208 Z M220,208 C226.627417,208 232,213.372583 232,220 C232,226.627417 226.627417,232 220,232 C213.372583,232 208,226.627417 208,220 C208,213.372583 213.372583,208 220,208 Z M540,208 C546.627417,208 552,213.372583 552,220 C552,226.627417 546.627417,232 540,232 C533.372583,232 528,226.627417 528,220 C528,213.372583 533.372583,208 540,208 Z M580,208 C586.627417,208 592,213.372583 592,220 C592,226.627417 586.627417,232 580,232 C573.372583,232 568,226.627417 568,220 C568,213.372583 573.372583,208 580,208 Z M140,208 C146.627417,208 152,213.372583 152,220 C152,226.627417 146.627417,232 140,232 C133.372583,232 128,226.627417 128,220 C128,213.372583 133.372583,208 140,208 Z M620,208 C626.627417,208 632,213.372583 632,220 C632,226.627417 626.627417,232 620,232 C613.372583,232 608,226.627417 608,220 C608,213.372583 613.372583,208 620,208 Z M340,208 C346.627417,208 352,213.372583 352,220 C352,226.627417 346.627417,232 340,232 C333.372583,232 328,226.627417 328,220 C328,213.372583 333.372583,208 340,208 Z M60,208 C66.627417,208 72,213.372583 72,220 C72,226.627417 66.627417,232 60,232 C53.372583,232 48,226.627417 48,220 C48,213.372583 53.372583,208 60,208 Z M460,208 C466.627417,208 472,213.372583 472,220 C472,226.627417 466.627417,232 460,232 C453.372583,232 448,226.627417 448,220 C448,213.372583 453.372583,208 460,208 Z M420,208 C426.627417,208 432,213.372583 432,220 C432,226.627417 426.627417,232 420,232 C413.372583,232 408,226.627417 408,220 C408,213.372583 413.372583,208 420,208 Z M20,208 C26.627417,208 32,213.372583 32,220 C32,226.627417 26.627417,232 20,232 C13.372583,232 8,226.627417 8,220 C8,213.372583 13.372583,208 20,208 Z M260,208 C266.627417,208 272,213.372583 272,220 C272,226.627417 266.627417,232 260,232 C253.372583,232 248,226.627417 248,220 C248,213.372583 253.372583,208 260,208 Z M140,168 C146.627417,168 152,173.372583 152,180 C152,186.627417 146.627417,192 140,192 C133.372583,192 128,186.627417 128,180 C128,173.372583 133.372583,168 140,168 Z M20,168 C26.627417,168 32,173.372583 32,180 C32,186.627417 26.627417,192 20,192 C13.372583,192 8,186.627417 8,180 C8,173.372583 13.372583,168 20,168 Z M540,168 C546.627417,168 552,173.372583 552,180 C552,186.627417 546.627417,192 540,192 C533.372583,192 528,186.627417 528,180 C528,173.372583 533.372583,168 540,168 Z M260,168 C266.627417,168 272,173.372583 272,180 C272,186.627417 266.627417,192 260,192 C253.372583,192 248,186.627417 248,180 C248,173.372583 253.372583,168 260,168 Z M340,168 C346.627417,168 352,173.372583 352,180 C352,186.627417 346.627417,192 340,192 C333.372583,192 328,186.627417 328,180 C328,173.372583 333.372583,168 340,168 Z M420,168 C426.627417,168 432,173.372583 432,180 C432,186.627417 426.627417,192 420,192 C413.372583,192 408,186.627417 408,180 C408,173.372583 413.372583,168 420,168 Z M460,168 C466.627417,168 472,173.372583 472,180 C472,186.627417 466.627417,192 460,192 C453.372583,192 448,186.627417 448,180 C448,173.372583 453.372583,168 460,168 Z M500,168 C506.627417,168 512,173.372583 512,180 C512,186.627417 506.627417,192 500,192 C493.372583,192 488,186.627417 488,180 C488,173.372583 493.372583,168 500,168 Z M180,168 C186.627417,168 192,173.372583 192,180 C192,186.627417 186.627417,192 180,192 C173.372583,192 168,186.627417 168,180 C168,173.372583 173.372583,168 180,168 Z M620,168 C626.627417,168 632,173.372583 632,180 C632,186.627417 626.627417,192 620,192 C613.372583,192 608,186.627417 608,180 C608,173.372583 613.372583,168 620,168 Z M580,168 C586.627417,168 592,173.372583 592,180 C592,186.627417 586.627417,192 580,192 C573.372583,192 568,186.627417 568,180 C568,173.372583 573.372583,168 580,168 Z M220,168 C226.627417,168 232,173.372583 232,180 C232,186.627417 226.627417,192 220,192 C213.372583,192 208,186.627417 208,180 C208,173.372583 213.372583,168 220,168 Z M380,168 C386.627417,168 392,173.372583 392,180 C392,186.627417 386.627417,192 380,192 C373.372583,192 368,186.627417 368,180 C368,173.372583 373.372583,168 380,168 Z M60,168 C66.627417,168 72,173.372583 72,180 C72,186.627417 66.627417,192 60,192 C53.372583,192 48,186.627417 48,180 C48,173.372583 53.372583,168 60,168 Z M100,168 C106.627417,168 112,173.372583 112,180 C112,186.627417 106.627417,192 100,192 C93.372583,192 88,186.627417 88,180 C88,173.372583 93.372583,168 100,168 Z M220,128 C226.627417,128 232,133.372583 232,140 C232,146.627417 226.627417,152 220,152 C213.372583,152 208,146.627417 208,140 C208,133.372583 213.372583,128 220,128 Z M260,128 C266.627417,128 272,133.372583 272,140 C272,146.627417 266.627417,152 260,152 C253.372583,152 248,146.627417 248,140 C248,133.372583 253.372583,128 260,128 Z M540,128 C546.627417,128 552,133.372583 552,140 C552,146.627417 546.627417,152 540,152 C533.372583,152 528,146.627417 528,140 C528,133.372583 533.372583,128 540,128 Z M580,128 C586.627417,128 592,133.372583 592,140 C592,146.627417 586.627417,152 580,152 C573.372583,152 568,146.627417 568,140 C568,133.372583 573.372583,128 580,128 Z M20,128 C26.627417,128 32,133.372583 32,140 C32,146.627417 26.627417,152 20,152 C13.372583,152 8,146.627417 8,140 C8,133.372583 13.372583,128 20,128 Z M300,128 C306.627417,128 312,133.372583 312,140 C312,146.627417 306.627417,152 300,152 C293.372583,152 288,146.627417 288,140 C288,133.372583 293.372583,128 300,128 Z M180,128 C186.627417,128 192,133.372583 192,140 C192,146.627417 186.627417,152 180,152 C173.372583,152 168,146.627417 168,140 C168,133.372583 173.372583,128 180,128 Z M140,128 C146.627417,128 152,133.372583 152,140 C152,146.627417 146.627417,152 140,152 C133.372583,152 128,146.627417 128,140 C128,133.372583 133.372583,128 140,128 Z M620,128 C626.627417,128 632,133.372583 632,140 C632,146.627417 626.627417,152 620,152 C613.372583,152 608,146.627417 608,140 C608,133.372583 613.372583,128 620,128 Z M500,128 C506.627417,128 512,133.372583 512,140 C512,146.627417 506.627417,152 500,152 C493.372583,152 488,146.627417 488,140 C488,133.372583 493.372583,128 500,128 Z M60,128 C66.627417,128 72,133.372583 72,140 C72,146.627417 66.627417,152 60,152 C53.372583,152 48,146.627417 48,140 C48,133.372583 53.372583,128 60,128 Z M100,128 C106.627417,128 112,133.372583 112,140 C112,146.627417 106.627417,152 100,152 C93.372583,152 88,146.627417 88,140 C88,133.372583 93.372583,128 100,128 Z M460,128 C466.627417,128 472,133.372583 472,140 C472,146.627417 466.627417,152 460,152 C453.372583,152 448,146.627417 448,140 C448,133.372583 453.372583,128 460,128 Z M420,128 C426.627417,128 432,133.372583 432,140 C432,146.627417 426.627417,152 420,152 C413.372583,152 408,146.627417 408,140 C408,133.372583 413.372583,128 420,128 Z M340,128 C346.627417,128 352,133.372583 352,140 C352,146.627417 346.627417,152 340,152 C333.372583,152 328,146.627417 328,140 C328,133.372583 333.372583,128 340,128 Z M380,128 C386.627417,128 392,133.372583 392,140 C392,146.627417 386.627417,152 380,152 C373.372583,152 368,146.627417 368,140 C368,133.372583 373.372583,128 380,128 Z M420,88 C426.627417,88 432,93.372583 432,100 C432,106.627417 426.627417,112 420,112 C413.372583,112 408,106.627417 408,100 C408,93.372583 413.372583,88 420,88 Z M220,88 C226.627417,88 232,93.372583 232,100 C232,106.627417 226.627417,112 220,112 C213.372583,112 208,106.627417 208,100 C208,93.372583 213.372583,88 220,88 Z M140,88 C146.627417,88 152,93.372583 152,100 C152,106.627417 146.627417,112 140,112 C133.372583,112 128,106.627417 128,100 C128,93.372583 133.372583,88 140,88 Z M300,88 C306.627417,88 312,93.372583 312,100 C312,106.627417 306.627417,112 300,112 C293.372583,112 288,106.627417 288,100 C288,93.372583 293.372583,88 300,88 Z M180,88 C186.627417,88 192,93.372583 192,100 C192,106.627417 186.627417,112 180,112 C173.372583,112 168,106.627417 168,100 C168,93.372583 173.372583,88 180,88 Z M20,88 C26.627417,88 32,93.372583 32,100 C32,106.627417 26.627417,112 20,112 C13.372583,112 8,106.627417 8,100 C8,93.372583 13.372583,88 20,88 Z M340,88 C346.627417,88 352,93.372583 352,100 C352,106.627417 346.627417,112 340,112 C333.372583,112 328,106.627417 328,100 C328,93.372583 333.372583,88 340,88 Z M380,88 C386.627417,88 392,93.372583 392,100 C392,106.627417 386.627417,112 380,112 C373.372583,112 368,106.627417 368,100 C368,93.372583 373.372583,88 380,88 Z M260,88 C266.627417,88 272,93.372583 272,100 C272,106.627417 266.627417,112 260,112 C253.372583,112 248,106.627417 248,100 C248,93.372583 253.372583,88 260,88 Z M540,88 C546.627417,88 552,93.372583 552,100 C552,106.627417 546.627417,112 540,112 C533.372583,112 528,106.627417 528,100 C528,93.372583 533.372583,88 540,88 Z M100,88 C106.627417,88 112,93.372583 112,100 C112,106.627417 106.627417,112 100,112 C93.372583,112 88,106.627417 88,100 C88,93.372583 93.372583,88 100,88 Z M460,88 C466.627417,88 472,93.372583 472,100 C472,106.627417 466.627417,112 460,112 C453.372583,112 448,106.627417 448,100 C448,93.372583 453.372583,88 460,88 Z M580,88 C586.627417,88 592,93.372583 592,100 C592,106.627417 586.627417,112 580,112 C573.372583,112 568,106.627417 568,100 C568,93.372583 573.372583,88 580,88 Z M620,88 C626.627417,88 632,93.372583 632,100 C632,106.627417 626.627417,112 620,112 C613.372583,112 608,106.627417 608,100 C608,93.372583 613.372583,88 620,88 Z M500,88 C506.627417,88 512,93.372583 512,100 C512,106.627417 506.627417,112 500,112 C493.372583,112 488,106.627417 488,100 C488,93.372583 493.372583,88 500,88 Z M60,88 C66.627417,88 72,93.372583 72,100 C72,106.627417 66.627417,112 60,112 C53.372583,112 48,106.627417 48,100 C48,93.372583 53.372583,88 60,88 Z M20,48 C26.627417,48 32,53.372583 32,60 C32,66.627417 26.627417,72 20,72 C13.372583,72 8,66.627417 8,60 C8,53.372583 13.372583,48 20,48 Z M540,48 C546.627417,48 552,53.372583 552,60 C552,66.627417 546.627417,72 540,72 C533.372583,72 528,66.627417 528,60 C528,53.372583 533.372583,48 540,48 Z M100,48 C106.627417,48 112,53.372583 112,60 C112,66.627417 106.627417,72 100,72 C93.372583,72 88,66.627417 88,60 C88,53.372583 93.372583,48 100,48 Z M460,48 C466.627417,48 472,53.372583 472,60 C472,66.627417 466.627417,72 460,72 C453.372583,72 448,66.627417 448,60 C448,53.372583 453.372583,48 460,48 Z M500,48 C506.627417,48 512,53.372583 512,60 C512,66.627417 506.627417,72 500,72 C493.372583,72 488,66.627417 488,60 C488,53.372583 493.372583,48 500,48 Z M300,48 C306.627417,48 312,53.372583 312,60 C312,66.627417 306.627417,72 300,72 C293.372583,72 288,66.627417 288,60 C288,53.372583 293.372583,48 300,48 Z M340,48 C346.627417,48 352,53.372583 352,60 C352,66.627417 346.627417,72 340,72 C333.372583,72 328,66.627417 328,60 C328,53.372583 333.372583,48 340,48 Z M620,48 C626.627417,48 632,53.372583 632,60 C632,66.627417 626.627417,72 620,72 C613.372583,72 608,66.627417 608,60 C608,53.372583 613.372583,48 620,48 Z M140,48 C146.627417,48 152,53.372583 152,60 C152,66.627417 146.627417,72 140,72 C133.372583,72 128,66.627417 128,60 C128,53.372583 133.372583,48 140,48 Z M420,48 C426.627417,48 432,53.372583 432,60 C432,66.627417 426.627417,72 420,72 C413.372583,72 408,66.627417 408,60 C408,53.372583 413.372583,48 420,48 Z M60,48 C66.627417,48 72,53.372583 72,60 C72,66.627417 66.627417,72 60,72 C53.372583,72 48,66.627417 48,60 C48,53.372583 53.372583,48 60,48 Z M380,48 C386.627417,48 392,53.372583 392,60 C392,66.627417 386.627417,72 380,72 C373.372583,72 368,66.627417 368,60 C368,53.372583 373.372583,48 380,48 Z M260,48 C266.627417,48 272,53.372583 272,60 C272,66.627417 266.627417,72 260,72 C253.372583,72 248,66.627417 248,60 C248,53.372583 253.372583,48 260,48 Z M220,48 C226.627417,48 232,53.372583 232,60 C232,66.627417 226.627417,72 220,72 C213.372583,72 208,66.627417 208,60 C208,53.372583 213.372583,48 220,48 Z M580,48 C586.627417,48 592,53.372583 592,60 C592,66.627417 586.627417,72 580,72 C573.372583,72 568,66.627417 568,60 C568,53.372583 573.372583,48 580,48 Z M180,48 C186.627417,48 192,53.372583 192,60 C192,66.627417 186.627417,72 180,72 C173.372583,72 168,66.627417 168,60 C168,53.372583 173.372583,48 180,48 Z M140,8 C146.627417,8 152,13.372583 152,20 C152,26.627417 146.627417,32 140,32 C133.372583,32 128,26.627417 128,20 C128,13.372583 133.372583,8 140,8 Z M620,8 C626.627417,8 632,13.372583 632,20 C632,26.627417 626.627417,32 620,32 C613.372583,32 608,26.627417 608,20 C608,13.372583 613.372583,8 620,8 Z M60,8 C66.627417,8 72,13.372583 72,20 C72,26.627417 66.627417,32 60,32 C53.372583,32 48,26.627417 48,20 C48,13.372583 53.372583,8 60,8 Z M20,8 C26.627417,8 32,13.372583 32,20 C32,26.627417 26.627417,32 20,32 C13.372583,32 8,26.627417 8,20 C8,13.372583 13.372583,8 20,8 Z M100,8 C106.627417,8 112,13.372583 112,20 C112,26.627417 106.627417,32 100,32 C93.372583,32 88,26.627417 88,20 C88,13.372583 93.372583,8 100,8 Z M180,8 C186.627417,8 192,13.372583 192,20 C192,26.627417 186.627417,32 180,32 C173.372583,32 168,26.627417 168,20 C168,13.372583 173.372583,8 180,8 Z M220,8 C226.627417,8 232,13.372583 232,20 C232,26.627417 226.627417,32 220,32 C213.372583,32 208,26.627417 208,20 C208,13.372583 213.372583,8 220,8 Z M260,8 C266.627417,8 272,13.372583 272,20 C272,26.627417 266.627417,32 260,32 C253.372583,32 248,26.627417 248,20 C248,13.372583 253.372583,8 260,8 Z M300,8 C306.627417,8 312,13.372583 312,20 C312,26.627417 306.627417,32 300,32 C293.372583,32 288,26.627417 288,20 C288,13.372583 293.372583,8 300,8 Z M340,8 C346.627417,8 352,13.372583 352,20 C352,26.627417 346.627417,32 340,32 C333.372583,32 328,26.627417 328,20 C328,13.372583 333.372583,8 340,8 Z M380,8 C386.627417,8 392,13.372583 392,20 C392,26.627417 386.627417,32 380,32 C373.372583,32 368,26.627417 368,20 C368,13.372583 373.372583,8 380,8 Z M420,8 C426.627417,8 432,13.372583 432,20 C432,26.627417 426.627417,32 420,32 C413.372583,32 408,26.627417 408,20 C408,13.372583 413.372583,8 420,8 Z M460,8 C466.627417,8 472,13.372583 472,20 C472,26.627417 466.627417,32 460,32 C453.372583,32 448,26.627417 448,20 C448,13.372583 453.372583,8 460,8 Z M500,8 C506.627417,8 512,13.372583 512,20 C512,26.627417 506.627417,32 500,32 C493.372583,32 488,26.627417 488,20 C488,13.372583 493.372583,8 500,8 Z M540,8 C546.627417,8 552,13.372583 552,20 C552,26.627417 546.627417,32 540,32 C533.372583,32 528,26.627417 528,20 C528,13.372583 533.372583,8 540,8 Z M580,8 C586.627417,8 592,13.372583 592,20 C592,26.627417 586.627417,32 580,32 C573.372583,32 568,26.627417 568,20 C568,13.372583 573.372583,8 580,8 Z" id="Dotted-background" fill="#EDEDED"></path>
        <g id="Logo" transform="translate(88.000000, 168.000000)">
            <circle id="Oval-Copy-103" fill="#8B0D88" cx="252" cy="92" r="12"></circle>
            <circle id="Oval-Copy-104" fill="#C00384" cx="372" cy="212" r="12"></circle>
            <circle id="Oval-Copy-154" fill="#303A99" cx="132" cy="212" r="12"></circle>
            <rect id="Rectangle" fill="#034EA2" x="0" y="120" width="24" height="64" rx="12"></rect>
            <rect id="Rectangle-Copy-7" fill="#F10080" x="440" y="120" width="24" height="64" rx="12"></rect>
            <rect id="Rectangle" fill="#5E2390" x="160" y="120" width="24" height="64" rx="12"></rect>
            <rect id="Rectangle-Copy-13" fill="#034EA2" x="40" y="80" width="24" height="144" rx="12"></rect>
            <rect id="Rectangle-Copy" fill="#5E2390" x="200" y="0" width="24" height="64" rx="12"></rect>
            <rect id="Rectangle-Copy-3" fill="#5E2390" x="200" y="80" width="24" height="104" rx="12"></rect>
            <rect id="Rectangle" fill="#303A99" x="80" y="40" width="24" height="64" rx="12"></rect>
            <rect id="Rectangle-Copy-9" fill="#F10080" x="400" y="40" width="24" height="64" rx="12"></rect>
            <rect id="Rectangle-Copy-5" fill="#8B0D88" x="280" y="200" width="24" height="64" rx="12"></rect>
            <rect id="Rectangle-Copy-11" fill="#C00384" x="320" y="120" width="24" height="64" rx="12"></rect>
            <rect id="Rectangle-Copy-10" fill="#C00384" x="360" y="80" width="24" height="104" rx="12"></rect>
            <rect id="Rectangle" fill="#303A99" x="120" y="80" width="24" height="104" rx="12"></rect>
            <rect id="Rectangle-Copy-4" fill="#8B0D88" x="240" y="120" width="24" height="104" rx="12"></rect>
            <rect id="Rectangle-Copy-2" fill="#5E2390" x="200" y="200" width="24" height="104" rx="12"></rect>
            <rect id="Rectangle" fill="#303A99" x="80" y="120" width="24" height="144" rx="12"></rect>
            <rect id="Rectangle-Copy-8" fill="#F10080" x="400" y="120" width="24" height="144" rx="12"></rect>
            <rect id="Rectangle-Copy-6" fill="#8B0D88" x="280" y="40" width="24" height="144" rx="12"></rect>
        </g>
    </g>
</svg>